<?xml version="1.0" encoding="utf-8"?>
<!-- Generator: Adobe Illustrator 25.4.1, SVG Export Plug-In . SVG Version: 6.00 Build 0)  -->
<svg version="1.1" id="Layer_1" xmlns="http://www.w3.org/2000/svg" xmlns:xlink="http://www.w3.org/1999/xlink" x="0px" y="0px"
	 viewBox="0 0 372.7 512" style="enable-background:new 0 0 372.7 512;" xml:space="preserve">
<style type="text/css">
	.st0{fill:#FFFFFF;}
	.st1{font-family:'HelveticaNeue-Bold';}
	.st2{font-size:5px;}
</style>
<path d="M349.7,80.3l-22.2-16.8c-14.5-11-35-9.3-47.4,4l-40,42.4c-1.4,1.5-2.2,3.5-2.2,5.5l0.2,29c0,4.4,3.6,8,8,8h0
	c4.4,0,8-3.6,8-8c0,0,0,0,0,0l-0.1-25.8l37.8-40.1c6.9-7.3,18.1-8.2,26.1-2.2L340.1,93c10.4,8,16.6,20.3,16.6,33.4l-0.5,232.9
	l-17,55c-0.3,0.8-0.4,1.7-0.4,2.6l2.3,87.3c0.1,4.3,3.7,7.8,8,7.8c0.1,0,0.1,0,0.2,0c4.4-0.1,7.9-3.8,7.8-8.2c0,0,0,0,0,0l-2.3-86
	l16.9-54.8c0.2-0.8,0.4-1.5,0.4-2.3l0.5-234.1C372.7,108.4,364.2,91.3,349.7,80.3z"/>
<path d="M241.7,280c-17.4-19.6-48.6-32.3-49.9-32.8c-4.1-1.6-8.8,0.3-10.4,4.4c-1.6,4.1,0.3,8.8,4.4,10.4
	c0.3,0.1,29.1,11.8,43.9,28.6c11.9,13.5,17.5,44.8,18.6,55.7c0.5,4.4,4.4,7.6,8.8,7.1s7.6-4.4,7.1-8.8
	C264.1,342.8,259.5,300.1,241.7,280z"/>
<path d="M296.8,116.3l-8.7,9.5c-1.3,1.4-2.1,3.3-2.1,5.3l-0.9,48.8c-0.1,8.5-7.1,15.3-15.7,15.2c-8.4-0.1-15.2-7-15.2-15.4
	c0-0.3,0-0.5,0-0.8l-0.1-12.9c0-4.4-3.6-8-8-8h0c-4.4,0-8,3.6-8,8c0,0,0,0,0,0l0.2,27.9c0,8.1-6.2,14.9-14.3,15.6
	c-4.3,0.4-8.5-1-11.7-3.9c-2.8-2.5-5.4-5.7-6.1-9.3l-2-91.8l47.2-42.2c6.2-5.5,15-7,22.8-3.9c4.1,1.7,8.8-0.3,10.4-4.4
	c1.7-4.1-0.3-8.8-4.4-10.4l0,0c-13.4-5.5-28.7-2.8-39.5,6.8L190.9,95c-1.7,1.6-2.7,3.8-2.7,6.1l2,95.5c0.2,10.6-8.2,19.4-18.9,19.6
	c-10.5,0.2-19.3-8.1-19.6-18.6L148.9,99c-0.2-8.2,3.8-15.9,10.7-20.4l48-31.1c6.7-4.3,15-5,22.3-1.9c4.1,1.8,8.8-0.1,10.5-4.2
	c1.8-4.1-0.1-8.8-4.2-10.5l0,0c-10.7-4.7-23-4.3-33.5,0.9L122.4,2.7c-13.8-5-29.2-3-41.3,5.3L14.4,53.7c-0.1,0.1-0.2,0.2-0.3,0.2
	c-2,1.5-3.1,3.9-3.1,6.4v26.2c0,4.4,3.6,8,8,8h2.2v6.5h-2.4C8.4,101,0,109.4,0,119.7v112.5c0,10.3,8.4,18.7,18.7,18.7h1.4
	c-14.2,14.9-14.3,35-14.2,36c0,2.9,1.6,5.6,4.2,7c0.4,0.2,38.1,20.5,61.3,33.7c10.2,5.8,14,14.7,19.8,28.2
	c4.6,10.7,10.4,24.1,21.1,39.5c14,20,35.1,33.8,59,38.7l-5.5,69.5c-0.3,4.4,2.9,8.3,7.3,8.6c0,0,0,0,0,0c0.2,0,0.4,0,0.6,0
	c4.2,0,7.6-3.2,8-7.4l6.1-77c0.3-4.4-2.9-8.3-7.3-8.6c-0.1,0-0.1,0-0.2,0c-0.3,0-33.3-2.3-54.9-33.1c-9.8-14-15-26-19.6-36.6
	c-6.3-14.7-11.8-27.3-26.6-35.8c-18.5-10.5-46.1-25.5-57-31.4c1.1-7.2,5.1-21.2,19.9-27.7c23.1-10.1,54.8,6.8,80.2,20.5
	c2.7,1.4,5.3,2.8,7.8,4.1c16.5,8.7,31,22.4,31.1,22.5c3.2,3.1,8.2,3,11.3-0.2c3.1-3.2,3-8.2-0.2-11.3c0,0,0,0-0.1,0
	c-0.6-0.6-15.1-14.4-32.7-24.1c6-5.1,10.8-13.1,10.8-25.1c0,0,0-0.1,0-0.1l-0.1-5.2c-0.1-4.4-3.6-7.9-8-7.9h-0.1
	c-4.4,0.1-8,3.7-7.9,8.1l0.1,5.1c0,11.1-7.1,15-11.3,16.3c-6.1-3.2-12.5-6.5-19.2-9.5c5.3-3.4,8.5-9.3,8.5-15.6V119.7
	c0-10.3-8.4-18.7-18.7-18.7h-2.4v-6.5h2.2c4.4,0,8-3.6,8-8V69.7l3.7-1.4c4.6-1.8,9.7-1.4,14,0.9l5.7,3c3.9,2.1,8.7,0.6,10.8-3.3
	c2.1-3.9,0.6-8.7-3.3-10.8l-5.7-3c-8.4-4.5-18.4-5.1-27.3-1.7l-1.2,0.5c-1.4-1-3-1.5-4.7-1.5H44.7l45.4-31.1
	c7.9-5.4,17.9-6.7,26.8-3.4l68.7,24.9l-34.8,22.5c-11.5,7.5-18.3,20.5-18,34.3l2.9,98.6c0.6,19,16.1,34.2,35.2,34.2
	c0.6,0,1.1,0,1.7,0c11.3-0.5,21.6-6.4,27.8-15.8c0.4,0.4,0.8,0.8,1.2,1.1c5.8,5.2,13.2,8,20.9,8c0.9,0,1.8,0,2.7-0.1
	c12-1.1,22.3-8.8,26.7-19.9c5.2,3.5,11.3,5.4,17.6,5.4c17.1-0.1,31-13.8,31.4-30.9l0.8-45.8l6.6-7.3c2.9-3.3,2.6-8.4-0.7-11.3
	C304.6,113,299.8,113.2,296.8,116.3L296.8,116.3z M96.5,119.7V133H29.1c-4.4,0-8,3.6-8,8s3.6,8,8,8h67.4v55.1H29.1c-4.4,0-8,3.6-8,8
	s3.6,8,8,8h67.4v12.1c0,1.5-1.2,2.7-2.7,2.7H18.7c-1.5,0-2.7-1.2-2.7-2.7V119.7c0-1.5,1.2-2.7,2.7-2.7h75.1
	C95.3,117,96.5,118.2,96.5,119.7L96.5,119.7z M75.4,101H37.1v-6.5h38.4V101z M85.6,78.5H26.9V68.3h58.7V78.5z"/>
<path d="M42.9,195.2c3.1,3.1,8,3.1,11.2,0.2l27.5-26c3.2-3,3.4-8.1,0.3-11.3c-3-3.2-8.1-3.4-11.3-0.3l0,0l-21.8,20.6l-6.6-6.6
	c-3.1-3.1-8.2-3.1-11.3,0c-3.1,3.1-3.1,8.2,0,11.3L42.9,195.2z"/>
<text transform="matrix(6.123234e-17 1 -1 6.123234e-17 362.8662 214.1352)" class="st0 st1 st2">Created by Koson Rattanaphan</text>
<text transform="matrix(6.123234e-17 1 -1 6.123234e-17 362.8662 290.4492)" class="st0 st1 st2">from the Noun Project</text>
</svg>
