<svg xmlns="http://www.w3.org/2000/svg" xmlns:xlink="http://www.w3.org/1999/xlink" version="1.1" x="0px" y="0px" viewBox="0 0 64 80" style="enable-background:new 0 0 64 64;" xml:space="preserve"><path d="M62.223,16.32c-1.128-0.664-2.615-0.578-4.009,0.198l-5.416,2.474c-4.333-0.04-7.509-1.303-10.577-2.531  C39.2,15.252,36.075,14,32,14c-4.075,0-7.2,1.252-10.221,2.461c-3.068,1.229-6.245,2.492-10.577,2.531l-5.345-2.439  c-1.463-0.813-2.951-0.899-4.08-0.234C0.647,16.984,0,18.326,0,20v12c0,3.134,2.145,6.781,4.955,8.338l5.567,2.543  C11.482,43.484,22.085,50,32,50c9.916,0,20.519-6.517,21.477-7.119l5.638-2.579C61.854,38.781,64,35.134,64,32V20  C64,18.326,63.352,16.984,62.223,16.32z M52,30.157C49.277,30.61,40.243,32,32,32c-8.238,0-17.276-1.39-20-1.843v-3.185  c4.262-0.14,7.415-1.133,10.456-2.107C25.448,23.905,28.274,23,32,23c3.726,0,6.552,0.905,9.544,1.864  c3.044,0.975,6.186,1.981,10.456,2.12V30.157z M12,32.184C15.123,32.692,23.927,34,32,34c8.073,0,16.877-1.308,20-1.816v3.209  C49.725,36.549,40.415,41,32,41c-8.415,0-17.725-4.451-20-5.607V32.184z M22.522,18.318C25.499,17.126,28.31,16,32,16  c3.689,0,6.501,1.126,9.477,2.318c3.061,1.226,6.217,2.49,10.523,2.662v3.991c-3.961-0.142-6.956-1.086-9.846-2.012  C39.147,21.996,36.039,21,32,21c-4.039,0-7.148,0.996-10.154,1.959c-2.89,0.926-5.884,1.87-9.846,2.012V20.98  C16.305,20.808,19.462,19.544,22.522,18.318z M2,32V20c0-0.947,0.288-1.66,0.791-1.956c0.502-0.296,1.265-0.202,2.164,0.294  L10,20.643v19.802l-4.144-1.89C3.766,37.393,2,34.392,2,32z M32,48c-8.455,0-17.832-5.272-20-6.562v-3.807  C15.371,39.271,23.919,43,32,43c8.081,0,16.629-3.729,20-5.369v3.807C49.832,42.728,40.455,48,32,48z M62,32  c0,2.392-1.766,5.393-3.786,6.519L54,40.444V20.642l5.115-2.34c0.827-0.459,1.59-0.554,2.094-0.258C61.712,18.34,62,19.053,62,20V32  z"/><text x="0" y="79" fill="#000000" font-size="5px" font-weight="bold" font-family="'Helvetica Neue', Helvetica, Arial-Unicode, Arial, Sans-serif">Created by Berkah Icon</text><text x="0" y="84" fill="#000000" font-size="5px" font-weight="bold" font-family="'Helvetica Neue', Helvetica, Arial-Unicode, Arial, Sans-serif">from the Noun Project</text></svg>