<svg xmlns="http://www.w3.org/2000/svg" viewBox="0 0 512 640" x="0px" y="0px"><title>21 vaccine in hand</title><path d="M419.412,80.289,397.171,63.442A35.572,35.572,0,0,0,349.743,67.4l-40.016,42.428a8,8,0,0,0-2.181,5.534l.164,28.993a8,8,0,0,0,8,7.955h.046a8,8,0,0,0,7.955-8.045l-.146-25.789,37.819-40.1A19.593,19.593,0,0,1,387.51,76.2l22.24,16.847a42.069,42.069,0,0,1,16.583,33.448l-.48,232.905-16.972,54.958a8.008,8.008,0,0,0-.354,2.572l2.308,87.285A8,8,0,0,0,418.828,512c.071,0,.144,0,.215,0a8,8,0,0,0,7.786-8.209l-2.272-85.97L441.5,362.972a8.025,8.025,0,0,0,.356-2.344l.482-234.1A58.152,58.152,0,0,0,419.412,80.289Z"/><path d="M311.321,279.97c-17.366-19.584-48.609-32.269-49.93-32.8a8,8,0,0,0-5.965,14.847c.29.116,29.089,11.837,43.924,28.567C311.3,304.057,316.862,335.349,318,346.266a8,8,0,0,0,15.916-1.643C333.727,342.813,329.136,300.061,311.321,279.97Z"/><path d="M366.464,116.3l-8.681,9.482a8,8,0,0,0-2.1,5.259l-.878,48.779a15.429,15.429,0,0,1-30.856-.181,7.957,7.957,0,0,0-.048-.822l-.072-12.924a8,8,0,0,0-8-7.955h-.046a8,8,0,0,0-7.955,8.045l.157,27.9A15.681,15.681,0,0,1,293.7,209.521a15.456,15.456,0,0,1-11.692-3.9c-2.84-2.531-5.429-5.678-6.1-9.342l-1.952-91.789,47.186-42.238a21.834,21.834,0,0,1,22.759-3.9,8,8,0,0,0,6.092-14.8,37.928,37.928,0,0,0-39.523,6.773L260.537,95.022a8,8,0,0,0-2.662,6.131l2.03,95.488a19.23,19.23,0,0,1-38.447.971l-2.89-98.633a23.614,23.614,0,0,1,10.694-20.386l48-31.123a23.657,23.657,0,0,1,22.32-1.867,8,8,0,0,0,6.352-14.686,39.608,39.608,0,0,0-33.466.907l-80.447-29.1A45.721,45.721,0,0,0,150.682,8L84.05,53.717c-.122.083-.228.165-.325.245a7.98,7.98,0,0,0-3.149,6.351V86.468a8,8,0,0,0,8,8h2.153V101H88.35A18.7,18.7,0,0,0,69.667,119.68V232.145A18.7,18.7,0,0,0,88.35,250.827h1.438c-14.209,14.948-14.259,34.957-14.25,36.031a8,8,0,0,0,4.207,6.98c.379.2,38.143,20.542,61.309,33.686,10.191,5.784,14.029,14.7,19.838,28.185,4.619,10.729,10.368,24.08,21.15,39.45A95.2,95.2,0,0,0,241,433.837l-5.517,69.53a8,8,0,0,0,7.342,8.608c.216.017.429.025.642.025a8,8,0,0,0,7.966-7.367l6.109-76.979a8,8,0,0,0-7.511-8.619c-.33-.019-33.294-2.278-54.89-33.064-9.836-14.023-15-26.012-19.554-36.59-6.316-14.668-11.772-27.337-26.637-35.773-18.48-10.485-46.13-25.487-57-31.364,1.1-7.2,5.145-21.182,19.947-27.652,23.149-10.119,54.806,6.84,80.242,20.466,2.67,1.43,5.263,2.82,7.764,4.133C216.391,287.85,230.86,301.6,231,301.73a8,8,0,1,0,11.068-11.554c-.629-.6-15.083-14.359-32.719-24.069,6-5.125,10.84-13.135,10.84-25.1,0-.036,0-.072,0-.108l-.069-5.182a8,8,0,0,0-8-7.893h-.11a8,8,0,0,0-7.891,8.107l.069,5.126c-.022,11.12-7.147,14.957-11.329,16.252-6.062-3.206-12.51-6.5-19.191-9.54a18.669,18.669,0,0,0,8.474-15.626V119.68A18.7,18.7,0,0,0,163.461,101h-2.379V94.468h2.153a8,8,0,0,0,8-8V69.708L174.9,68.3a16.846,16.846,0,0,1,13.988.86l5.667,3.023a8,8,0,0,0,7.529-14.118l-5.667-3.022a32.838,32.838,0,0,0-27.26-1.677l-1.232.474a7.959,7.959,0,0,0-4.688-1.527H114.378L159.734,21.2a29.7,29.7,0,0,1,26.839-3.429L255.31,42.633,220.557,65.169a39.7,39.7,0,0,0-17.982,34.278l2.89,98.634a35.232,35.232,0,0,0,35.168,34.2q.858,0,1.721-.041a35.052,35.052,0,0,0,27.8-15.787q.588.57,1.2,1.116a31.273,31.273,0,0,0,20.949,8.011q1.357,0,2.729-.115a31.784,31.784,0,0,0,26.728-19.922,31.219,31.219,0,0,0,17.615,5.434,31.583,31.583,0,0,0,31.424-30.865l.823-45.753,6.638-7.25a8,8,0,0,0-11.8-10.8Zm-200.32,3.376v13.327H98.729a8,8,0,1,0,0,16h67.415v55.075H98.729a8,8,0,1,0,0,16h67.415v12.063a2.686,2.686,0,0,1-2.683,2.682H88.35a2.686,2.686,0,0,1-2.683-2.682V119.68A2.686,2.686,0,0,1,88.35,117h75.111A2.686,2.686,0,0,1,166.144,119.68ZM145.082,101H106.729V94.468h38.353Zm10.153-22.529H96.576V68.313h58.659Z"/><path d="M112.548,195.188a8,8,0,0,0,11.152.158l27.482-25.973a8,8,0,0,0-10.99-11.629l-21.83,20.631-6.581-6.582a8,8,0,1,0-11.314,11.314Z"/><text x="0" y="527" fill="#000000" font-size="5px" font-weight="bold" font-family="'Helvetica Neue', Helvetica, Arial-Unicode, Arial, Sans-serif">Created by Koson Rattanaphan</text><text x="0" y="532" fill="#000000" font-size="5px" font-weight="bold" font-family="'Helvetica Neue', Helvetica, Arial-Unicode, Arial, Sans-serif">from the Noun Project</text></svg>