<?xml version="1.0" encoding="utf-8"?>
<!-- Generator: Adobe Illustrator 25.4.1, SVG Export Plug-In . SVG Version: 6.00 Build 0)  -->
<svg version="1.1" id="Layer_1" xmlns="http://www.w3.org/2000/svg" xmlns:xlink="http://www.w3.org/1999/xlink" x="0px" y="0px"
	 viewBox="0 0 64 64" style="enable-background:new 0 0 64 64;" xml:space="preserve">
<g>
	<circle cx="56" cy="11" r="1"/>
	<circle cx="57" cy="8" r="1"/>
	<circle cx="53" cy="8" r="1"/>
	<path d="M63,8h-2.1c-0.2-0.9-0.5-1.7-1-2.5L61.4,4c0.9-0.9-0.5-2.4-1.4-1.4l-1.5,1.5c-0.7-0.5-1.6-0.9-2.5-1V1c0-1.3-2-1.3-2,0v2.1
		c-0.9,0.2-1.7,0.5-2.5,1L50,2.6c-0.9-0.9-2.3,0.5-1.4,1.4l1.5,1.5c-0.5,0.7-0.9,1.6-1,2.5H47c-1.3,0-1.3,2,0,2h2.1
		c0.2,0.9,0.5,1.7,1,2.5l-1.5,1.5c-0.9,0.9,0.5,2.3,1.4,1.4l1.5-1.5c0.7,0.5,1.6,0.9,2.5,1V17c0,1.3,2,1.3,2,0v-2.1
		c0.9-0.2,1.7-0.5,2.5-1l1.5,1.5c0.9,0.9,2.3-0.5,1.4-1.4l-1.5-1.5c0.5-0.7,0.9-1.6,1-2.5H63C64.3,10,64.3,8,63,8z M55,13
		c-2.2,0-4-1.8-4-4s1.8-4,4-4s4,1.8,4,4S57.2,13,55,13z"/>
	<circle cx="35" cy="57" r="1"/>
	<circle cx="36" cy="54" r="1"/>
	<circle cx="32" cy="54" r="1"/>
	<path d="M42,54h-2.1c-0.2-0.9-0.5-1.7-1-2.5l1.5-1.5c0.9-0.9-0.5-2.3-1.4-1.4l-1.5,1.5c-0.7-0.5-1.6-0.9-2.5-1V47c0-1.3-2-1.3-2,0
		v2.1c-0.9,0.2-1.7,0.5-2.5,1L29,48.6c-0.9-0.9-2.3,0.5-1.4,1.4l1.5,1.5c-0.5,0.7-0.9,1.6-1,2.5H26c-1.3,0-1.3,2,0,2h2.1
		c0.2,0.9,0.5,1.7,1,2.5L27.6,60c-0.9,0.9,0.5,2.3,1.4,1.4l1.5-1.5c0.7,0.5,1.6,0.9,2.5,1V63c0,1.3,2,1.3,2,0v-2.1
		c0.9-0.2,1.7-0.5,2.5-1l1.5,1.5c0.9,0.9,2.4-0.5,1.4-1.4l-1.5-1.5c0.5-0.7,0.9-1.6,1-2.5H42C43.3,56,43.3,54,42,54z M34,59
		c-2.2,0-4-1.8-4-4s1.8-4,4-4c2.2,0,4,1.8,4,4S36.2,59,34,59z"/>
	<path d="M35.7,35.8l-4.6-4.6c-0.9-0.9-2.3,0.5-1.4,1.4l4.2,4.2c-0.3,1.4,0.2,3,1.2,4.1c0.9,0.9,2,1.3,3.2,1.3s2.3-0.4,3.2-1.3
		c1.7-1.8,1.7-4.6,0-6.4c-1.1-1.1-2.6-1.5-4.1-1.2l-4-4c-0.9-0.9-2.3,0.5-1.4,1.4c0,0,4.4,4.4,4.4,4.4c0.3,0.3,0.7,0.4,1.1,0.3
		c0.9-0.3,1.9-0.1,2.6,0.6c1,1,1,2.6,0,3.5c-1,1-2.6,1-3.5,0c-0.7-0.7-0.9-1.7-0.6-2.6C36,36.6,35.9,36.1,35.7,35.8z"/>
	<path d="M40,15.7c-1.6,0-3.1,0.8-4,2h-2.5c-0.4-1.4-1-2.7-1.8-3.9l2.4-2.4c1.5,0.3,3-0.2,4-1.2c1.8-1.8,1.8-4.6,0-6.4
		c-1.8-1.8-4.6-1.8-6.4,0C30.7,5,30.2,6.5,30.5,8l-2.5,2.5C26.5,9.5,24.7,9,23,8.8v-1c0.7-0.2,1.3-0.5,1.8-1C25.6,6.1,26,5.1,26,4
		s-0.4-2.1-1.2-2.8c-1.5-1.5-4.1-1.5-5.7,0C18.4,1.9,18,2.9,18,4s0.4,2.1,1.2,2.8c0.5,0.5,1.1,0.9,1.8,1v1c-1.8,0.1-3.5,0.7-5.1,1.6
		l-2.7-2.7c0.3-1.4-0.2-3-1.2-4c-1.8-1.8-4.6-1.8-6.4,0c-1.8,1.8-1.8,4.6,0,6.4c0.9,0.9,2,1.3,3.2,1.3c0.3,0,0.6,0,0.9-0.1l2.6,2.6
		c-1.3,1.8-2,3.8-2.2,5.9H7.9c-0.2-0.7-0.5-1.3-1-1.8c-1.5-1.5-4.1-1.5-5.7,0c-1.6,1.6-1.6,4.1,0,5.7C1.9,24.3,3,24.7,4,24.7
		s2-0.4,2.8-1.2c0.5-0.5,0.9-1.2,1-1.8H10c0.2,2.1,0.9,4.1,2.2,5.9l-2.7,2.7c-1.4-0.3-3,0.2-4.1,1.2c-1.8,1.8-1.8,4.6,0,6.4
		c0.9,0.9,2,1.3,3.2,1.3s2.3-0.4,3.2-1.3c1.1-1.1,1.5-2.6,1.2-4l2.9-2.9c0.9,0.6,2,1,3,1.3V38c-1.2,0.9-2,2.4-2,4c0,2.8,2.2,5,5,5
		s5-2.2,5-5c0-1.6-0.8-3.1-2-4v-5.7c1.4-0.4,2.7-0.9,3.8-1.7c1.1-0.8-0.1-2.4-1.2-1.6c-1.1,0.8-2.4,1.3-3.8,1.6
		c-0.1,0-0.4,0.1-0.6,0.4C23,31.1,23,31.4,23,31.5v7c0,0.3,0.2,0.7,0.5,0.9c0.9,0.5,1.5,1.5,1.5,2.6c0,1.7-1.3,3-3,3s-3-1.3-3-3
		c0-1.1,0.6-2.1,1.5-2.6c0.3-0.2,0.5-0.6,0.5-0.9v-7c0-0.8-1-1.1-0.8-1c-1.4-0.3-2.7-0.8-3.8-1.6c-0.1,0-0.3-0.2-0.6-0.2
		c-0.3,0-0.5,0.2-0.6,0.3l-3.8,3.8C11,33.2,10.8,33.5,11,34c0.3,0.9,0.1,1.9-0.6,2.6c-1,1-2.6,1-3.5,0c-1-1-1-2.6,0-3.5
		c0.7-0.7,1.7-0.9,2.6-0.6c0.1,0,0.6,0.2,1.1-0.2l3.7-3.7c0.3-0.3,0.4-1,0.1-1.4c-2.9-3.4-3.1-8.2-0.7-11.9l0.1,0.1
		c0.9,0.9,2.3-0.5,1.4-1.4c-0.2-0.2-4.7-4.7-4.5-4.5C10.4,9.2,10,9.1,9.6,9.2C8.7,9.5,7.7,9.3,7,8.6c-1-1-1-2.6,0-3.5s2.6-1,3.5,0
		c0.7,0.7,0.9,1.7,0.6,2.6C11,8,11.1,8.5,11.4,8.8l3.6,3.6c0.3,0.3,0.9,0.4,1.3,0.1c3.4-2.3,7.9-2.3,11.3,0c0.4,0.3,1,0.2,1.3-0.1
		L32.4,9c0.2-0.2,0.4-0.7,0.2-1.1C32.3,7,32.5,6,33.2,5.3c1-1,2.6-1,3.5,0c1,1,1,2.6,0,3.5C36,9.5,35,9.8,34.1,9.4
		c-0.4-0.1-0.8,0-1,0.2l-4.5,4.5c-0.9,0.9,0.5,2.3,1.4,1.4l0.3-0.3c0.7,1.1,1.2,2.3,1.5,3.6c0.1,0.1,0.1,0.3,0.3,0.6
		c0.3,0.2,0.5,0.2,0.7,0.3h3.8c0.3,0,0.7-0.3,0.9-0.5c0.5-0.9,1.5-1.5,2.6-1.5c1.7,0,3,1.3,3,3s-1.3,3-3,3c-1.1,0-2.1-0.6-2.6-1.5
		c-0.1-0.3-0.5-0.5-0.9-0.5h-3.8c-0.5,0-0.9,0.4-1,0.8c-0.3,1.6-1,3.2-2.1,4.5c-0.8,1,0.7,2.3,1.5,1.3c1.1-1.4,1.9-3,2.3-4.6H36
		c0.9,1.2,2.4,2,4,2c2.8,0,5-2.2,5-5S42.8,15.7,40,15.7z M2.6,22.2c-0.8-0.8-0.8-2,0-2.8c0.8-0.8,2-0.8,2.8,0c0.8,0.8,0.8,2,0,2.8
		C4.6,22.9,3.4,22.9,2.6,22.2z M20,4c0-1.1,0.9-2,2-2s2,0.9,2,2c0,0.5-0.2,1-0.6,1.4c-0.8,0.8-2.1,0.8-2.8,0C20.2,5,20,4.5,20,4z"/>
	<path d="M19,27.5c1.7,0,3-1.3,3-3s-1.3-3-3-3s-3,1.3-3,3S17.3,27.5,19,27.5z M19,23.5c0.6,0,1,0.4,1,1s-0.4,1-1,1s-1-0.4-1-1
		S18.4,23.5,19,23.5z"/>
	<path d="M9,52c-1.7,0-3,1.3-3,3s1.3,3,3,3s3-1.3,3-3S10.7,52,9,52z M9,56c-0.6,0-1-0.4-1-1s0.4-1,1-1s1,0.4,1,1S9.6,56,9,56z"/>
	<circle cx="17" cy="19" r="1"/>
	<circle cx="52" cy="46" r="1"/>
	<path d="M27,25.5c1.7,0,3-1.3,3-3s-1.3-3-3-3s-3,1.3-3,3S25.3,25.5,27,25.5z M27,21.5c0.6,0,1,0.4,1,1s-0.4,1-1,1s-1-0.4-1-1
		S26.4,21.5,27,21.5z"/>
	<path d="M56,30c0-1.7-1.3-3-3-3s-3,1.3-3,3s1.3,3,3,3S56,31.6,56,30z M52,30c0-0.6,0.4-1,1-1s1,0.4,1,1s-0.4,1-1,1S52,30.5,52,30z"
		/>
	<path d="M57,54c-1.7,0-3,1.3-3,3s1.3,3,3,3s3-1.3,3-3S58.7,54,57,54z M57,58c-0.6,0-1-0.4-1-1s0.4-1,1-1s1,0.4,1,1S57.5,58,57,58z"
		/>
	<path d="M25,16.5c0-1.4-1.1-2.5-2.5-2.5S20,15.1,20,16.5s1.1,2.5,2.5,2.5S25,17.9,25,16.5z M22,16.5c0-0.3,0.2-0.5,0.5-0.5
		s0.5,0.2,0.5,0.5S22.8,17,22.5,17S22,16.8,22,16.5z"/>
</g>
</svg>
