<svg xmlns="http://www.w3.org/2000/svg" xmlns:xlink="http://www.w3.org/1999/xlink" version="1.1" x="0px" y="0px" viewBox="0 0 130 162.5" style="enable-background:new 0 0 130 130;" xml:space="preserve"><g><path d="M48.3,42.9c0.7,0,1.3-0.6,1.3-1.3c0-0.7-0.6-1.3-1.3-1.3c-0.7,0-1.3,0.6-1.3,1.3C47.1,42.3,47.6,42.9,48.3,42.9z"/><path d="M37.7,45.6c-0.7,0-1.3,0.6-1.3,1.3c0,0.7,0.6,1.3,1.3,1.3c0.7,0,1.3-0.6,1.3-1.3C38.9,46.1,38.4,45.6,37.7,45.6z"/><path d="M33.5,47.4c-0.7,0-1.3,0.6-1.3,1.3c0,0.7,0.6,1.3,1.3,1.3c0.7,0,1.3-0.6,1.3-1.3C34.8,48,34.2,47.4,33.5,47.4z"/><circle cx="29.4" cy="50.4" r="1.3"/><circle cx="25.5" cy="52.3" r="1.3"/><path d="M101.2,26c-4.4-4.7-10.1-7.2-16.1-7.2c-0.2,0-0.3,0-0.5,0.1c0,0,0,0,0,0l-13.1,6c-4.2-1.5-8.8-2.3-13.9-2.5   c-1.3,0-2.5,0-3.7,0v-2.5c0-0.3-0.1-0.6-0.4-0.8c-0.2-0.2-0.5-0.3-0.8-0.3c-3.3,0.2-6.3,0.7-9.2,1.4c-0.5,0.1-0.8,0.6-0.8,1.1v3   c-13.5,4.5-17.1,15-17.9,18.2c-0.3,1.2-0.6,2.7-0.9,4.2l-3.4,1.6c-0.4,0.2-0.6,0.5-0.6,0.9c-0.4,3.4-0.3,6.7,0.4,10.1   c0.1,0.3,0.3,0.6,0.6,0.8c0.2,0.1,0.3,0.1,0.5,0.1c0.2,0,0.3,0,0.5-0.1l2.1-1c0.9,4.2,2.6,8.9,5.4,14.2c7.1,13.4,3.8,26.4,3.7,26.8   c-0.2,0.5,0,1,0.4,1.3c10,6.4,21.5,10,33.3,10.5c0,0,0,0,0.1,0c0.1,0,0.2,0,0.3,0c0.4,0,0.8-0.3,1-0.7c0,0,0,0,0,0   c0-0.1,0.1-0.1,0.1-0.2l1.9-8.2l35.6,17c0.2,0.1,0.3,0.1,0.5,0.1c0.2,0,0.4-0.1,0.6-0.2c0.3-0.2,0.5-0.6,0.5-1V39.6   C107.3,35.3,104.9,30,101.2,26z M89.5,48.5c0.6,1.3,0.4,2.9-0.4,4.1L88.8,53c-1.1,1.5-0.9,3.5,0.4,4.8c1.2,1.2,2.4,3.3,3.1,4.5   l-6.9,1.8l-20.9-7.4c-1.3-2.4-3.7-4-6.5-4.4v-5l31.1,0.2L89.5,48.5z M91.2,86.8c0-0.8,0.2-1.2,0.9-1.7c0.2-0.2,0.3-0.4,0.4-0.6   c0.2-0.8,0.1-2.3-0.7-3.3c0.7-1.1,0.9-2.1,0.9-2.3c0,0,0-0.1,0-0.1c0-0.1,0-0.2,0-0.2c0-0.1,0-0.1,0-0.2c0-0.1-0.1-0.1-0.1-0.2   c0-0.1-0.1-0.1-0.1-0.2c0,0,0-0.1-0.1-0.1c-0.7-0.7-1-1.9-1-2.3c0-0.3,0.1-0.5,0.4-0.6l4-1.3c1.3-0.4,2.3-1.4,2.7-2.6   c0.5-1.2,0.3-2.6-0.4-3.8l-2.3-3.6l1.5-0.4l2.6,4.5c0.7,1.4,0.8,2.9,0.3,4.3c-1.4,4.3-5.6,14.3-7.8,19.6c-3.3,8-6.2,8.1-13.7,7.8   l-0.4-1.4c3.9,0.4,7.3,0.3,9.8-2.2C90.9,93.4,91.1,89,91.2,86.8z M96.2,68.5c0.3,0.5,0.4,1.2,0.2,1.8s-0.7,1.1-1.3,1.3l-4,1.3   c-1.3,0.4-2.1,1.7-1.9,3c0,0.2,0.3,1.8,1.2,3.1c-0.1,0.4-0.4,1-0.9,1.4c0,0-0.1,0.1-0.1,0.1c0,0-0.1,0.1-0.1,0.1c0,0,0,0,0,0   c0,0.1-0.1,0.1-0.1,0.2c0,0.1,0,0.1,0,0.2c0,0.1,0,0.1,0,0.2c0,0.1,0,0.1,0,0.2c0,0.1,0.1,0.1,0.1,0.2c0,0.1,0.1,0.1,0.1,0.2   c0,0,0,0,0,0c0,0,0.1,0.1,0.1,0.1c0.1,0,0.1,0.1,0.2,0.1c0.6,0.3,0.6,1.1,0.6,1.5c-0.9,0.9-1.2,1.7-1.3,3.1   c-0.1,1.9-0.3,5.6-2.3,7.6c-2,1.9-5,1.9-8.8,1.4l-0.9-3.6c4.8-8,7.9-16.7,9.2-26l7.5-2L96.2,68.5z M69.4,95.8l-0.9,3.9l-4-1.9   c-4-1.9-6.5-6-6.5-10.4V76c0.4,0.1,0.8,0.1,1.2,0.1c1,0,1.9-0.2,2.7-0.6l12.7,17c0,0.1,0.1,0.1,0.1,0.2l0.7,2.7   c-1.5-0.2-3.1-0.4-4.8-0.6C70.1,94.9,69.5,95.2,69.4,95.8z M46.9,38.6l0.2-0.1c0.4-0.2,0.8-0.2,1.2-0.2c1.8,0,3.3,1.5,3.3,3.3   S50.2,45,48.3,45S45,43.5,45,41.7C45,40.3,45.8,39.2,46.9,38.6z M51,36.8l4.7-2.2V45l-3,0c0.7-0.9,1.1-2.1,1.1-3.4   C53.9,39.5,52.7,37.7,51,36.8z M58,33.6l13.6-6.3c2.3,0.9,4.4,2,6.3,3.3c3,2,5.4,4.7,7.1,8H58V33.6z M63.3,60.9v1.7   c0,0.6,0.5,1.1,1.1,1.1s1.1-0.5,1.1-1.1v-1.7c0-0.5-0.1-1-0.1-1.5l18.4,6.5c-1.2,8.6-4,16.7-8.3,24.1L63.7,74.3   c1.1-1.1,1.8-2.7,1.8-4.4c0-0.6-0.5-1.1-1.1-1.1s-1.1,0.5-1.1,1.1c0,2.3-1.8,4.1-4.1,4.1c-0.4,0-0.9-0.1-1.2-0.2V54.6   C61,55.1,63.3,57.7,63.3,60.9z M55.7,71.9c-0.4-0.6-0.6-1.3-0.6-2.1c0-1.7-1.1-2.7-2.1-3.7c-1.3-1.2-2.6-2.4-2.6-5.2   c0-3.2,2.3-5.8,5.3-6.4V71.9z M58,45.1v-4.3h28.1l2,4.5L58,45.1z M88.6,40.8H105v4.7l-14.5-0.1L88.6,40.8z M85.3,21   c11.3,0.1,18.9,10.2,19.6,17.5H87.6c-1.9-4-4.7-7.4-8.4-9.8c-1.5-1-3.1-1.9-4.8-2.7L85.3,21z M57.5,24.6c3.9,0.1,7.6,0.7,11,1.6   l-14.6,6.7v-8.3C55.1,24.6,56.3,24.6,57.5,24.6z M51.7,21.1V34l-5.4,2.5c-0.1,0.1-0.3,0.1-0.4,0.2L45,37V22.1   C47.1,21.6,49.3,21.3,51.7,21.1z M27,43c0.7-2.8,3.9-12.1,15.7-16.3v11.4l-16.3,7.5C26.7,44.6,26.9,43.8,27,43z M22,50.1l20.7-9.5   v1.1c0,0,0,0,0,0c0,2.2,1.3,4.1,3.1,5L22.2,57.5C21.8,55,21.8,52.6,22,50.1z M66.3,109.6c-11-0.5-21.6-3.9-30.9-9.6   c0.7-3,2.6-15-4.1-27.7c-2.8-5.3-4.5-9.9-5.3-14.1l23.8-10.9l5.9,0v5c-4.3,0.6-7.6,4.2-7.6,8.6c0,3.8,1.9,5.5,3.3,6.8   c0.9,0.9,1.4,1.4,1.4,2c0,2.2,1.1,4.1,2.8,5.3v12.3c0,5.3,3.1,10.1,7.8,12.4l4.5,2.1L66.3,109.6z M70.6,100.6l0.8-3.4   c1.3,0.1,2.6,0.3,3.8,0.5c0.3,0,0.5,0.1,0.8,0.1l0.8,3.1c0.1,0.5,0.6,0.8,1.1,0.8l0.4,0c1.2,0,2.4,0.1,3.5,0.1   c5.8,0,9.5-1.2,12.9-9.3c3.3-8,6.6-15.9,7.8-19.8c0.7-2,0.5-4.1-0.5-6.1l-3.1-5.3c-0.3-0.4-0.8-0.6-1.3-0.5l-3,0.8   c0-0.1-0.1-0.2-0.2-0.3c-0.7-1.2-2.1-3.7-3.6-5.2c-0.5-0.5-0.6-1.3-0.2-1.9l0.3-0.4c1.3-1.8,1.5-4.2,0.6-6.3l0,0l13.5,0.1v69.4   L70.6,100.6z"/></g><text x="0" y="145" fill="#000000" font-size="5px" font-weight="bold" font-family="'Helvetica Neue', Helvetica, Arial-Unicode, Arial, Sans-serif">Created by Carl Holderness</text><text x="0" y="150" fill="#000000" font-size="5px" font-weight="bold" font-family="'Helvetica Neue', Helvetica, Arial-Unicode, Arial, Sans-serif">from the Noun Project</text></svg>