<svg xmlns="http://www.w3.org/2000/svg" viewBox="0 0 512 640" x="0px" y="0px"><g data-name="Capa 3"><path d="M211,142.63H193.32c.05-5.58.06-18.8-.06-51.12,0-2.16,0-3.53,0-3.81a48.72,48.72,0,1,0-97.44,0c0,1.61.24,40.71.33,54.93H76.63a40,40,0,0,0-39.94,39.94v82.1a40,40,0,0,0,39.94,39.94H78v133a35.4,35.4,0,0,0,65.83,18.12,35.41,35.41,0,0,0,65.84-18.12v-133H211A40,40,0,0,0,251,264.67v-82.1A40,40,0,0,0,211,142.63ZM105.81,87.7a38.72,38.72,0,1,1,77.44,0c0,.28,0,1.67,0,3.84.12,31.58.11,45.49.07,51.09H106.14C106.05,128.54,105.81,89.27,105.81,87.7ZM76.63,294.61a30,30,0,0,1-29.94-29.94v-82.1a30,30,0,0,1,29.94-29.94h62.2V244H88V203.52a5,5,0,1,0-10,0v91.09Zm123,0H148.83V254h50.84Zm-60.84,0H88V254h50.83ZM113.42,463A25.44,25.44,0,0,1,88,437.6v-133h50.83v133A25.44,25.44,0,0,1,113.42,463Zm86.25-25.42a25.42,25.42,0,0,1-50.84,0v-133h50.84ZM241,264.67A30,30,0,0,1,211,294.61h-1.36V203.52a5,5,0,0,0-10,0V244H148.83V152.63H211A30,30,0,0,1,241,182.57Z"/><path d="M171.34,79.54a5,5,0,0,0-5-5H122.75l-.18,0a3.17,3.17,0,0,0-.53,0,3.69,3.69,0,0,0-.46.08l-.48.15a3.34,3.34,0,0,0-.44.17c-.15.07-.29.15-.43.23l-.4.25-.38.31a3.31,3.31,0,0,0-.33.32,3.79,3.79,0,0,0-.32.38c-.09.12-.19.24-.27.37a3.68,3.68,0,0,0-.23.44,3.55,3.55,0,0,0-.21.44,3.88,3.88,0,0,0-.14.45,4.37,4.37,0,0,0-.12.52c0,.06,0,.11,0,.17-.07.56-.15,1.13-.05,28.06v1.89a26.86,26.86,0,1,0,53.72,0c0-.26,0-23.83-.19-28.77A4.78,4.78,0,0,0,171.34,79.54ZM144.61,125.7a16.87,16.87,0,0,1-16.86-16.86v-1.93c0-11.69,0-18.5,0-22.37h33.67c.07,7.62.11,22.64.11,24.3A16.88,16.88,0,0,1,144.61,125.7Z"/><path d="M394.54,216.58c-4-2.23-17.31-9.5-22.86-9.5-4.86,0-13.47,3.3-23,8.84a5,5,0,0,0,5,8.65c9.34-5.4,15.93-7.45,18-7.49,1.81.21,9,3.15,18,8.21a4.89,4.89,0,0,0,2.44.64,5,5,0,0,0,2.46-9.35Z"/><path d="M415.77,216.47c-2.16-1.95-4.33-3.75-6.44-5.4C396,200.62,378.74,191.8,371.68,191.8c-7.73,0-28.41,9.51-44.8,24.67-14.71.08-50.52,1.71-50.52,34.86a37.44,37.44,0,0,0,36.32,37.37,51.06,51.06,0,0,0,12,13.05c12,9.25,28.23,14.13,47,14.13s35.05-4.88,47-14.13a51.24,51.24,0,0,0,12-13.05,37.43,37.43,0,0,0,36.47-37.37C467.16,217.51,429.88,216.5,415.77,216.47ZM286.36,251.33c0-14.91,9.35-22.5,30.76-24.38-7.48,9.45-12.6,20.33-12.6,32a58.66,58.66,0,0,0,3,19.05A27.45,27.45,0,0,1,286.36,251.33Zm126.22,42.51c-10.05,7.77-24.58,12-40.9,12s-30.84-4.27-40.9-12c-10.64-8.22-16.26-20.28-16.26-34.88,0-12.59,7.86-24.3,17.81-33.8l.3-.28c14.75-14,33.95-23.08,39.05-23.08,2.93,0,17.22,6,31.59,17.23,9.55,7.49,25.58,22.63,25.58,39.93C428.85,273.56,423.22,285.62,412.58,293.84Zm23.22-15.79A58.59,58.59,0,0,0,438.85,259c0-12.15-5.65-23-13.05-32.06,21.84,1.79,31.36,9.38,31.36,24.43A27.45,27.45,0,0,1,435.8,278.05Z"/><path d="M437.6,386.55H416.67c-10,0-22.46-8.37-22.58-8.46l-.23-.14-39.07-23.61a4.85,4.85,0,0,0-1.43-.59c-3.27-.78-10-.73-14.42,4.38-4.81,5.55-2.53,12.52-.42,15.77a5.06,5.06,0,0,0,1.32,1.37l5.7,4H304.39c-6.55,0-11.88,5.86-11.88,13.06a14.31,14.31,0,0,0,.47,3.62c-4.9,1.61-8.47,6.6-8.47,12.5A13.26,13.26,0,0,0,291,420.05a14.21,14.21,0,0,0-.74,4.51c0,7.2,5.33,13.06,11.88,13.06h4a15.81,15.81,0,0,0-.94,5.4c0,7.2,5.33,13.06,11.89,13.06h72.28l.51,0c17.53-1.76,48.75-18.42,50.07-19.13a5,5,0,0,0,2.64-4.41v-41A5,5,0,0,0,437.6,386.55ZM315.21,443c0-2.17,1.36-3.91,1.89-4.06h38.22a5,5,0,0,0,5-5,3.24,3.24,0,0,1,0-1.34,5,5,0,0,0-5-5H302.11c-.87,0-1.88-1.34-1.88-3.06s1-3.06,1.88-3.06h49.21a5,5,0,0,0,0-10H296.39c-.87,0-1.88-1.33-1.88-3.06s1-3.06,1.88-3.06H345.6a5,5,0,0,0,0-10H304.39c-.87,0-1.88-1.33-1.88-3.06s1-3.06,1.88-3.06h52.93c1.1,4.32,3.46,10.83,8.26,15.2,7.41,6.73,19.44,6.63,20.8,6.6a5,5,0,0,0-.24-10c-2.56,0-10.05-.57-13.83-4s-5.6-10.88-5.94-13.41a5,5,0,0,0-2.09-3.45l-17.7-12.42c-.37-.86-.8-2.28-.09-3.1a4.84,4.84,0,0,1,4-1.27l38.11,23c1.56,1,15.46,10.11,28.09,10.11h.51v40.31c-9.4,4.16-20.47,8.41-28.08,9.22h-72C316.23,446.08,315.21,444.75,315.21,443ZM432.6,429.49c-1.37.7-3.23,1.64-5.42,2.71V396.55h5.42Z"/><path d="M470.31,64.05H448.79a41.84,41.84,0,0,0-31-13.66H340.43a41.82,41.82,0,0,0-30.94,13.66H288.28a5,5,0,0,0-5,5v45.4a5,5,0,0,0,5,5h15.4a42,42,0,0,0,36.75,21.77h21.78a5,5,0,0,0,3.82-1.77l12.63-14.89,12.93,14.93a5,5,0,0,0,3.78,1.73h22.47a42,42,0,0,0,36.76-21.77h15.71a5,5,0,0,0,5-5V69.05A5,5,0,0,0,470.31,64.05Zm-177,45.4V74.05h9.41a41.67,41.67,0,0,0-4.2,18.28v7a41.66,41.66,0,0,0,1.26,10.17Zm124.56,21.77H397.66L382.4,113.6a5,5,0,0,0-3.78-1.73h0a5,5,0,0,0-3.78,1.77L359.9,131.22H340.43a32,32,0,0,1-28.3-17.16,4.92,4.92,0,0,0-1.44-3.16,31.85,31.85,0,0,1-2.2-11.62v-7a31.79,31.79,0,0,1,6.31-19,4.91,4.91,0,0,0,2-2.46,31.87,31.87,0,0,1,23.6-10.44h77.41a32,32,0,0,1,31.94,31.94v7a31.8,31.8,0,0,1-2.47,12.32,4.89,4.89,0,0,0-.72,1.59A32,32,0,0,1,417.84,131.22Zm47.47-21.77h-6.78a41.66,41.66,0,0,0,1.25-10.17v-7a41.8,41.8,0,0,0-4.19-18.28h9.72Z"/></g><text x="0" y="527" fill="#000000" font-size="5px" font-weight="bold" font-family="'Helvetica Neue', Helvetica, Arial-Unicode, Arial, Sans-serif">Created by antonio bartolo</text><text x="0" y="532" fill="#000000" font-size="5px" font-weight="bold" font-family="'Helvetica Neue', Helvetica, Arial-Unicode, Arial, Sans-serif">from the Noun Project</text></svg>