<svg xmlns="http://www.w3.org/2000/svg" xmlns:xlink="http://www.w3.org/1999/xlink" version="1.1" x="0px" y="0px" viewBox="0 0 98.7 123.375" style="enable-background:new 0 0 98.7 98.7;" xml:space="preserve"><g><path d="M43.2,14.8c0.7,0,2.8,0,10,3.7c3.5,1.8,6.4,3.6,6.5,3.6l-1.5,2.5c-4.4-2.7-12.5-7-15-7c-2.6,0-10.6,4.3-15,7l-1.5-2.5   c0.1-0.1,3-1.8,6.5-3.6C40.4,14.8,42.5,14.8,43.2,14.8z"/></g><g><path d="M28.5,63.1c0,0.5,0.4,0.8,0.8,0.8h27.2c0.5,0,0.8-0.4,0.8-0.8c0-0.5-0.4-0.8-0.8-0.8H29.3C28.9,62.2,28.5,62.6,28.5,63.1z    M25.9,63.1c0-1.9,1.6-3.5,3.5-3.5h27.2c1.9,0,3.5,1.6,3.5,3.5s-1.6,3.5-3.5,3.5H29.3C27.4,66.5,25.9,65,25.9,63.1z"/></g><g><path d="M27.8,35.1c0,0.4,0.4,0.8,0.8,0.8h27.2c0.5,0,0.8-0.4,0.8-0.8c0-0.5-0.4-0.8-0.8-0.8H28.6C28.2,34.3,27.8,34.6,27.8,35.1z    M25.2,35.1c0-1.9,1.5-3.5,3.5-3.5h27.2c1.9,0,3.5,1.6,3.5,3.5s-1.6,3.5-3.5,3.5H28.6C26.7,38.6,25.2,37,25.2,35.1z"/></g><g><path d="M22.4,57.2c-1.9,0-3.5-1.5-3.5-3.5s1.6-3.5,3.5-3.5h41.1c1.9,0,3.5,1.6,3.5,3.5s-1.6,3.5-3.5,3.5H22.4z M21.5,53.7   c0,0.5,0.4,0.8,0.8,0.8h41.1c0.5,0,0.8-0.4,0.8-0.8c0-0.5-0.4-0.8-0.8-0.8H22.4C21.9,52.9,21.5,53.3,21.5,53.7z"/></g><g><path d="M16.5,44.4c0-1.9,1.6-3.5,3.5-3.5h45.8c1.9,0,3.5,1.6,3.5,3.5s-1.6,3.5-3.5,3.5H20C18.1,47.9,16.5,46.3,16.5,44.4z    M65.8,43.6H20c-0.5,0-0.8,0.4-0.8,0.8c0,0.4,0.4,0.8,0.8,0.8h45.8c0.5,0,0.8-0.4,0.8-0.8C66.7,44,66.3,43.6,65.8,43.6z"/></g><g><path d="M5.2,47c0.3,0.5,1.2,1.5,2.2,2.4C7.2,48,7,46.6,6.9,45.2c-0.7,0-1.7,0.2-1.9,0.5C4.8,45.9,4.9,46.5,5.2,47z M46.4,75.6   c4.7,1.5,9.6,3.8,13.5,8.2c2.9,3.2,12.2,4.9,19.4,2c4.4-1.7,9.6-5.7,9.3-14.8c0-1.3-0.9-3.1-1.8-5c-1.5-3.3-3.2-7-2.2-10.4   c0.5-1.8-1.1-6.2-3.2-8.5c-0.7-0.8-1.7-1.3-2.3-1.4C78.3,61.4,64.2,74.2,46.4,75.6z M43,9.5c-3.3,0-7.4,1.9-12.1,5.6   c-16.3,12.7-20.5,22-21,27.9h1.8v-0.7c0-0.5,0.4-1,1-1h0.1c0.5,0,1,0.4,1,1v5.1c0,0.5-0.4,1-1,1h-0.1c-0.5,0-1-0.4-1-1v-0.7H9.9   C11.4,61.3,25.7,72.8,43,72.8H43c17.3,0,31.6-11.5,33.1-26.1h-1.3v0.7c0,0.5-0.4,1-1,1h-0.2c-0.5,0-1-0.4-1-1v-5.1c0-0.5,0.4-1,1-1   h0.2c0.5,0,1,0.4,1,1V43h1.3c-0.5-5.9-4.8-15.2-21-27.9C50.4,11.4,46.3,9.5,43,9.5L43,9.5z M29.1,12.8C34.4,8.7,39,6.7,43,6.7H43   c4,0,8.6,2.1,13.9,6.2c9.8,7.7,21.5,19.1,22.2,30.4c1-0.1,2.4,0.3,4.1,2.2c2.4,2.8,4.5,8,3.7,10.8c-0.7,2.5,0.8,5.8,2.1,8.7   c1,2.2,1.9,4.2,2,6c0.2,8.2-3.7,14.3-10.8,17.1c-2.9,1.2-6.1,1.7-9.1,1.7c-5.6,0-10.7-1.7-13-4.3c-5.4-6-12.7-7.8-19.2-9.3   c-2.2-0.5-4.2-1-6.1-1.6c-11.6-3-20.8-11-24.4-21.1c-2-1.3-4.7-4.1-5.3-5.2c-0.8-1.4-0.8-2.9-0.1-3.9C4,42.9,6,42.8,7,42.7   C7.9,31.6,19.4,20.4,29.1,12.8z"/></g><text x="0" y="113.7" fill="#000000" font-size="5px" font-weight="bold" font-family="'Helvetica Neue', Helvetica, Arial-Unicode, Arial, Sans-serif">Created by MRFA</text><text x="0" y="118.7" fill="#000000" font-size="5px" font-weight="bold" font-family="'Helvetica Neue', Helvetica, Arial-Unicode, Arial, Sans-serif">from the Noun Project</text></svg>