<svg xmlns="http://www.w3.org/2000/svg" data-name="Layer 3" viewBox="0 0 64 80" x="0px" y="0px"><path d="M59,15a3.961,3.961,0,0,0-2.124.624A3.492,3.492,0,0,0,50,16.5v2.851a3.447,3.447,0,0,0-3.456.247A14.965,14.965,0,0,0,23.037,4H23v.028A14.85,14.85,0,0,0,17.453,19.6,3.448,3.448,0,0,0,14,19.35V16.5a3.493,3.493,0,0,0-6.877-.875A3.989,3.989,0,0,0,1,19V36a.992.992,0,0,0,.122.479l6,11a1,1,0,0,0,.17.228l7.828,7.828A2.977,2.977,0,0,1,16,57.657V62a1,1,0,0,0,1,1H29a1,1,0,0,0,1-1V49.576a4.984,4.984,0,0,0-1.346-3.411L24,41.176,24,31.5A3.5,3.5,0,0,0,20.5,28a3.45,3.45,0,0,0-1.5.351v-4.9a14.968,14.968,0,0,0,26,0v4.9A3.464,3.464,0,0,0,43.5,28,3.5,3.5,0,0,0,40,31.5v9.677l-4.655,4.988A4.983,4.983,0,0,0,34,49.576V62a1,1,0,0,0,1,1H47a1,1,0,0,0,1-1V57.657a2.98,2.98,0,0,1,.879-2.122l7.828-7.828a1,1,0,0,0,.17-.228l6-11A.992.992,0,0,0,63,36l0-17A4,4,0,0,0,59,15ZM15.5,21A1.5,1.5,0,0,1,17,22.5l0,11.177-.675-.724A3.013,3.013,0,0,0,14.131,32H14V22.49A1.5,1.5,0,0,1,15.5,21Zm-5-6A1.5,1.5,0,0,1,12,16.5V32.778a3,3,0,0,0-.919,1.525L9,31.655V16.5A1.5,1.5,0,0,1,10.5,15ZM28,49.576V61H18V57.657a4.969,4.969,0,0,0-1.465-3.536L8.809,46.4,3,35.745V19a2,2,0,0,1,2-2,2,2,0,0,1,2,2V32a1,1,0,0,0,.213.618l11,14,1.573-1.236L13,36.745V35a1,1,0,0,1,1-1h.131a1,1,0,0,1,.73.317L27.192,47.529A2.99,2.99,0,0,1,28,49.576ZM20.5,30A1.5,1.5,0,0,1,22,31.5v7.534l-3-3.214V31.5A1.5,1.5,0,0,1,20.5,30ZM23,6.64V8.5A2.5,2.5,0,0,0,25.5,11a.5.5,0,0,1,.5.5v1A2.5,2.5,0,0,0,28.5,15H31a1,1,0,0,1,0,2,8.191,8.191,0,0,0-5.828,2.415l-3.906,3.9A12.954,12.954,0,0,1,23,6.64Zm3.448,21.1L27.9,25.8a2.008,2.008,0,0,1,1.6-.8h.591a4,4,0,0,0,2.219-.672,2,2,0,0,1,2.647.383l2.542,3.05a12.835,12.835,0,0,1-11.052-.025Zm12.826-.969-2.78-3.336a4,4,0,0,0-5.292-.768,2,2,0,0,1-1.11.337H29.5a4.019,4.019,0,0,0-3.2,1.6l-1.608,2.143a13.1,13.1,0,0,1-2.159-1.862l4.053-4.053A6.2,6.2,0,0,1,31,19a3,3,0,0,0,0-6H28.5a.5.5,0,0,1-.5-.5v-1A2.5,2.5,0,0,0,25.5,9a.5.5,0,0,1-.5-.5V5.062A12.9,12.9,0,0,1,29.784,3.2l-.218,1.305a5.925,5.925,0,0,0,2.812,6.085,5.986,5.986,0,0,0,5.274.422l.157-.062a1.407,1.407,0,0,1,1.889.966,1.412,1.412,0,0,1-.371,1.337l-.4.4a6.587,6.587,0,0,0,.544,9.8l1.9,1.522A13,13,0,0,1,39.273,26.767Zm3.372-3.331L40.721,21.9a4.587,4.587,0,0,1-.378-6.826l.4-.4A3.408,3.408,0,0,0,37.065,9.1l-.156.062A3.955,3.955,0,0,1,31.54,4.836l.3-1.829c.052,0,.1-.007.154-.007A12.982,12.982,0,0,1,42.645,23.436ZM53.5,15A1.5,1.5,0,0,1,55,16.5V31.654L52.917,34.3A3,3,0,0,0,52,32.779V16.5A1.5,1.5,0,0,1,53.5,15Zm-5,6A1.5,1.5,0,0,1,50,22.5V32h-.131a3.01,3.01,0,0,0-2.192.953L47,33.677V22.5A1.5,1.5,0,0,1,48.5,21ZM42,31.5a1.5,1.5,0,1,1,3,0v4.321l-3,3.213Zm19,4.245L55.189,46.4l-7.726,7.726A4.968,4.968,0,0,0,46,57.657V61H36V49.576a2.989,2.989,0,0,1,.807-2.047L49.137,34.318a1,1,0,0,1,.73-.318H50a1,1,0,0,1,1,1v1.745l-6.786,8.637,1.573,1.236,11-14A1,1,0,0,0,57,32V19a2,2,0,0,1,4,0Z"/><text x="0" y="79" fill="#000000" font-size="5px" font-weight="bold" font-family="'Helvetica Neue', Helvetica, Arial-Unicode, Arial, Sans-serif">Created by nareerat jaikaew</text><text x="0" y="84" fill="#000000" font-size="5px" font-weight="bold" font-family="'Helvetica Neue', Helvetica, Arial-Unicode, Arial, Sans-serif">from the Noun Project</text></svg>