<?xml version="1.0" encoding="utf-8"?>
<!-- Generator: Adobe Illustrator 25.4.1, SVG Export Plug-In . SVG Version: 6.00 Build 0)  -->
<svg version="1.1" id="Layer_1" xmlns="http://www.w3.org/2000/svg" xmlns:xlink="http://www.w3.org/1999/xlink" x="0px" y="0px"
	 viewBox="0 0 43.8 64" style="enable-background:new 0 0 43.8 64;" xml:space="preserve">
<style type="text/css">
	.st0{fill:#FFFFFF;}
	.st1{fill:#1D1D1B;}
	.st2{font-family:'HelveticaNeue-Bold';}
	.st3{font-size:1px;}
</style>
<path class="st0" d="M41.2,34.5l-12-3.5c-0.6-0.2-1.3-0.5-1.3-2v-3c2.4-1.8,4-4.7,4-8V1c0-0.6-0.4-1-1-1h-13c-3.3,0-6,2.7-6,6v12
	c0,3.3,1.6,6.2,4,8v3c0,1.5-0.6,1.9-1.3,2l-12,3.4C1.2,34.9,0,36.5,0,38v25c0,0.6,0.4,1,1,1h41.8c0.6,0,1-0.4,1-1V38
	C43.8,36.5,42.7,34.9,41.2,34.5z M21.9,41.1L18.7,36h6.5L21.9,41.1z M17.9,2h12v5h-16V6C13.9,3.8,15.7,2,17.9,2z M13.9,18V9h16v9
	c0,4.4-3.6,8-8,8S13.9,22.4,13.9,18z M21.9,28c1.4,0,2.8-0.3,4-0.8V29c0,1.6,0.5,2.7,1.5,3.4l-1,1.6h-9.1l-1-1.6
	c1-0.7,1.5-1.8,1.5-3.4v-1.8C19.1,27.7,20.5,28,21.9,28z M10.9,47c1.1,0,2,0.9,2,2s-0.9,2-2,2s-2-0.9-2-2S9.8,47,10.9,47z M2,38
	c0-0.7,0.6-1.4,1.2-1.6l6.7-1.9v10.7c-1.7,0.4-3,2-3,3.9c0,2.2,1.8,4,4,4s4-1.8,4-4c0-1.9-1.3-3.4-3-3.9V34v-0.1l2.6-0.7l6.4,10.1
	V62h-11v-5c0-0.6-0.4-1-1-1s-1,0.4-1,1v5H2V38z M41.8,62h-5.9v-5c0-0.6-0.4-1-1-1s-1,0.4-1,1v5h-11V43.3l6.4-10.1l2.6,0.7V34v7.2
	c-3.9,1.3-4,9.8-4,10.8c0,0.6,0.4,1,1,1h2c0.6,0,1-0.4,1-1s-0.4-1-1-1h-1c0.2-3.5,1.1-8,3-8c1.9,0,2.8,4.5,3,8h-1c-0.6,0-1,0.4-1,1
	s0.4,1,1,1h2c0.6,0,1-0.4,1-1c0-1-0.1-9.6-4-10.8v-6.7l6.7,1.9c0.6,0.2,1.2,0.9,1.2,1.6C41.8,38,41.8,62,41.8,62z"/>
<text transform="matrix(6.123234e-17 -1 1 6.123234e-17 42.9767 62.0004)" class="st1 st2 st3">Created by Berkah Icon</text>
<text transform="matrix(6.123234e-17 -1 1 6.123234e-17 42.977 50.4837)" class="st1 st2 st3">from the Noun Project</text>
</svg>
