<?xml version="1.0" encoding="utf-8"?>
<!-- Generator: Adobe Illustrator 25.4.1, SVG Export Plug-In . SVG Version: 6.00 Build 0)  -->
<svg version="1.1" id="Layer_1" xmlns="http://www.w3.org/2000/svg" xmlns:xlink="http://www.w3.org/1999/xlink" x="0px" y="0px"
	 viewBox="0 0 75.5 62.4" style="enable-background:new 0 0 75.5 62.4;" xml:space="preserve">
<style type="text/css">
	.st0{fill:#FFFFFF;}
	.st1{fill:#1D1D1B;}
	.st2{font-family:'HelveticaNeue-Bold';}
	.st3{font-size:1px;}
</style>
<path class="st0" d="M67.6,16c-1.1-0.7-2.6-0.6-4,0.2l-5.4,2.5c-4.3,0-7.5-1.3-10.6-2.5c-3-1.2-6.1-2.5-10.2-2.5s-7.2,1.3-10.2,2.5
	c-3.1,1.2-6.3,2.5-10.6,2.5l-5.3-2.4c-1.5-0.8-3-0.9-4.1-0.2C6,16.7,5.4,18,5.4,19.7v12c0,3.1,2.1,6.8,5,8.3l5.6,2.5
	c1,0.6,11.6,7.1,21.5,7.1S58,43.1,59,42.5l5.6-2.6c2.7-1.5,4.9-5.2,4.9-8.3V19.7C69.4,18,68.8,16.7,67.6,16z M57.4,29.9
	c-2.7,0.4-11.8,1.8-20,1.8s-17.3-1.4-20-1.8v-3.2c4.3-0.1,7.4-1.1,10.5-2.1c3-1,5.8-1.9,9.5-1.9s6.6,0.9,9.5,1.9c3,1,6.2,2,10.5,2.1
	V29.9z M17.4,31.9c3.1,0.5,11.9,1.8,20,1.8s16.9-1.3,20-1.8v3.2c-2.3,1.1-11.6,5.6-20,5.6s-17.7-4.5-20-5.6
	C17.4,35.1,17.4,31.9,17.4,31.9z M27.9,18c3-1.2,5.8-2.3,9.5-2.3s6.5,1.1,9.5,2.3s6.2,2.5,10.5,2.7v4c-4-0.1-7-1.1-9.8-2
	c-3.1-1-6.2-2-10.2-2s-7.1,1-10.2,2c-2.8,0.9-5.8,1.8-9.8,2v-4C21.7,20.5,24.9,19.2,27.9,18z M7.4,31.7v-12c0-0.9,0.3-1.7,0.8-2
	s1.3-0.2,2.2,0.3l5,2.3v19.8l-4.1-1.9C9.2,37.1,7.4,34.1,7.4,31.7z M37.4,47.7c-8.5,0-17.8-5.3-20-6.6v-3.8c3.4,1.6,11.9,5.4,20,5.4
	s16.6-3.7,20-5.4v3.8C55.2,42.4,45.9,47.7,37.4,47.7z M67.4,31.7c0,2.4-1.8,5.4-3.8,6.5l-4.2,1.9V20.3l5.1-2.3
	c0.8-0.5,1.6-0.6,2.1-0.3c0.5,0.3,0.8,1,0.8,2V31.7z"/>
<text transform="matrix(6.123234e-17 1 -1 6.123234e-17 58.0645 19.4345)" class="st1 st2 st3">Created by Berkah Icon</text>
<text transform="matrix(6.123234e-17 1 -1 6.123234e-17 58.0645 30.9121)" class="st1 st2 st3">from the Noun Project</text>
</svg>
