<?xml version="1.0" encoding="utf-8"?>
<!-- Generator: Adobe Illustrator 25.4.1, SVG Export Plug-In . SVG Version: 6.00 Build 0)  -->
<svg version="1.1" id="Layer_1" xmlns="http://www.w3.org/2000/svg" xmlns:xlink="http://www.w3.org/1999/xlink" x="0px" y="0px"
	 viewBox="0 0 438.6 434.1" style="enable-background:new 0 0 438.6 434.1;" xml:space="preserve">
<style type="text/css">
	.st0{fill:#FFFFFF;}
	.st1{fill:#1D1D1B;}
	.st2{font-family:'HelveticaNeue-Bold';}
	.st3{font-size:5px;}
</style>
<g>
	<path class="st0" d="M174.3,103.6h-17.7c0.1-5.6,0.1-18.8-0.1-51.1c0-2.2,0-3.5,0-3.8c0-26.9-21.8-48.7-48.7-48.7
		S59.1,21.8,59.1,48.7c0,1.6,0.2,40.7,0.3,54.9H39.9c-22,0-39.9,17.9-39.9,39.9v82.1c0,22,17.9,39.9,39.9,39.9h1.4v133
		c0,19.6,15.8,35.4,35.4,35.4c12.5,0,24.1-6.6,30.5-17.3c10,16.8,31.7,22.3,48.5,12.3c10.7-6.4,17.3-18,17.3-30.4v-133h1.3
		c22.1,0,40-17.9,40-39.9v-82.1C214.3,121.5,196.4,103.6,174.3,103.6z M69.1,48.7c0-21.4,17.3-38.7,38.7-38.7s38.7,17.3,38.7,38.7
		l0,0c0,0.3,0,1.7,0,3.8c0.1,31.6,0.1,45.5,0.1,51.1H69.4C69.4,89.6,69.1,50.3,69.1,48.7z M39.9,255.6c-16.5,0-29.9-13.4-29.9-29.9
		v-82.1c0-16.5,13.4-29.9,29.9-29.9h62.2V205H51.3v-40.5c0-2.8-2.2-5-5-5s-5,2.2-5,5v91.1H39.9z M162.9,255.6h-50.8V215H163
		L162.9,255.6z M102.1,255.6H51.3V215h50.8V255.6z M76.7,424c-14,0-25.4-11.4-25.4-25.4v-133h50.8v133
		C102.1,412.6,90.8,424,76.7,424z M163,398.6c0,14-11.4,25.4-25.4,25.4s-25.4-11.4-25.4-25.4v-133H163V398.6z M204.3,225.7
		c0,16.5-13.5,29.9-30,29.9h-1.4v-91.1c0-2.8-2.2-5-5-5s-5,2.2-5,5V205h-50.8v-91.4h62.2c16.5,0,30,13.4,30,29.9V225.7z"/>
	<path class="st0" d="M134.6,40.6c0-2.8-2.2-5-5-5H86.1h-0.2c-0.2,0-0.4,0-0.5,0c-0.2,0-0.3,0-0.5,0.1l-0.5,0.2
		c-0.2,0-0.3,0.1-0.4,0.2c-0.2,0.1-0.3,0.2-0.4,0.2l-0.4,0.2l-0.4,0.3c-0.1,0.1-0.2,0.2-0.3,0.3c-0.1,0.1-0.2,0.2-0.3,0.4
		c-0.1,0.1-0.2,0.2-0.3,0.4c-0.1,0.1-0.2,0.3-0.2,0.4c-0.1,0.1-0.2,0.3-0.2,0.4c-0.1,0.1-0.1,0.3-0.1,0.4c-0.1,0.2-0.1,0.3-0.1,0.5
		c0,0.1,0,0.1,0,0.2c-0.1,0.6-0.2,1.1-0.1,28.1v1.9c0,14.8,12,26.9,26.9,26.9c14.8,0,26.9-12,26.9-26.9c0-0.3,0-23.8-0.2-28.8
		C134.6,40.9,134.6,40.7,134.6,40.6z M107.9,86.7c-9.3,0-16.9-7.6-16.9-16.9v-1.9c0-11.7,0-18.5,0-22.4h33.7
		c0.1,7.6,0.1,22.6,0.1,24.3C124.8,79.2,117.3,86.7,107.9,86.7L107.9,86.7z"/>
	<path class="st0" d="M357.9,177.6c-4-2.2-17.3-9.5-22.9-9.5c-4.9,0-13.5,3.3-23,8.8c-2.3,1.5-3,4.6-1.5,6.9c1.4,2.2,4.2,3,6.5,1.7
		c9.3-5.4,15.9-7.4,18-7.5c1.8,0.2,9,3.1,18,8.2c0.7,0.4,1.6,0.6,2.4,0.6c2.8,0,5-2.2,5-5C360.4,180.1,359.5,178.5,357.9,177.6
		L357.9,177.6z"/>
	<path class="st0" d="M379.1,177.5c-2.2-1.9-4.3-3.8-6.4-5.4c-13.3-10.5-30.6-19.3-37.6-19.3c-7.7,0-28.4,9.5-44.8,24.7
		c-14.7,0.1-50.5,1.7-50.5,34.9c0,20.2,16.1,36.8,36.3,37.4c3.2,5,7.3,9.4,12,13c12,9.2,28.2,14.1,47,14.1s35-4.9,47-14.1
		c4.7-3.6,8.8-8,12-13c20.3-0.5,36.4-17.1,36.5-37.4C430.5,178.5,393.2,177.5,379.1,177.5z M249.7,212.3c0-14.9,9.4-22.5,30.8-24.4
		c-7.5,9.4-12.6,20.3-12.6,32c-0.1,6.5,1,12.9,3,19C258.4,236.1,249.7,225.1,249.7,212.3z M375.9,254.9c-10,7.8-24.6,12-40.9,12
		s-30.8-4.3-40.9-12c-10.6-8.2-16.3-20.3-16.3-34.9c0-12.6,7.9-24.3,17.8-33.8l0.3-0.3c14.8-14,34-23.1,39-23.1
		c2.9,0,17.2,6,31.6,17.2c9.5,7.5,25.6,22.6,25.6,39.9C392.2,234.6,386.5,246.6,375.9,254.9z M399.1,239.1c2.1-6.1,3.1-12.6,3.1-19
		c0-12.1-5.6-23-13-32.1c21.8,1.8,31.4,9.4,31.4,24.4C420.4,225.2,411.6,236.2,399.1,239.1z"/>
	<path class="st0" d="M400.9,347.6H380c-10,0-22.5-8.4-22.6-8.5l-0.2-0.1l-39.1-23.6c-0.4-0.3-0.9-0.5-1.4-0.6
		c-3.3-0.8-10-0.7-14.4,4.4c-4.8,5.5-2.5,12.5-0.4,15.8c0.3,0.5,0.8,1,1.3,1.4l5.7,4h-41.1c-6.5,0-11.9,5.9-11.9,13.1
		c0,1.2,0.2,2.4,0.5,3.6c-4.9,1.6-8.5,6.6-8.5,12.5c-0.1,4.8,2.4,9.2,6.5,11.6c-0.5,1.5-0.7,3-0.7,4.5c0,7.2,5.3,13.1,11.9,13.1h4
		c-0.6,1.7-0.9,3.6-0.9,5.4c0,7.2,5.3,13.1,11.9,13.1h72.3h0.5c17.5-1.8,48.8-18.4,50.1-19.1c1.6-0.9,2.6-2.6,2.6-4.4v-41
		C405.9,349.8,403.7,347.6,400.9,347.6z M278.5,404c0-2.2,1.4-3.9,1.9-4.1h38.2c2.8,0,5-2.2,5-5c-0.1-0.4-0.1-0.9,0-1.3
		c0-2.8-2.2-5-5-5h-53.2c-0.9,0-1.9-1.3-1.9-3.1s1-3.1,1.9-3.1h49.2c2.8,0,5-2.2,5-5s-2.2-5-5-5h-54.9c-0.9,0-1.9-1.3-1.9-3.1
		s1-3.1,1.9-3.1h49.2c2.8,0,5-2.2,5-5s-2.2-5-5-5h-41.2c-0.9,0-1.9-1.3-1.9-3.1s1-3.1,1.9-3.1h52.9c1.1,4.3,3.5,10.8,8.3,15.2
		c7.4,6.7,19.4,6.6,20.8,6.6c2.8-0.1,4.9-2.4,4.9-5.1s-2.4-4.9-5.1-4.9c-2.6,0-10-0.6-13.8-4s-5.6-10.9-5.9-13.4
		c-0.2-1.4-0.9-2.6-2.1-3.5L310,328.5c-0.4-0.9-0.8-2.3-0.1-3.1c1.1-1,2.5-1.5,4-1.3l38.1,23c1.6,1,15.5,10.1,28.1,10.1h0.5v40.3
		c-9.4,4.2-20.5,8.4-28.1,9.2h-72C279.5,407.1,278.5,405.8,278.5,404z M395.9,390.5c-1.4,0.7-3.2,1.6-5.4,2.7v-35.6h5.4V390.5z"/>
	<path class="st0" d="M433.6,25.1h-21.5c-7.9-8.7-19.2-13.7-31-13.7h-77.4c-11.8,0-23,5-30.9,13.7h-21.2c-2.8,0-5,2.2-5,5v45.4
		c0,2.8,2.2,5,5,5H267c7.4,13.4,21.4,21.7,36.8,21.8h21.8c1.5,0,2.9-0.6,3.8-1.8L342,85.6l12.9,14.9c0.9,1.1,2.3,1.7,3.8,1.7h22.5
		c15.3,0,29.4-8.4,36.8-21.8h15.7c2.8,0,5-2.2,5-5V30.1C438.6,27.3,436.4,25.1,433.6,25.1z M256.6,70.5V35.1h9.4
		c-2.8,5.7-4.2,11.9-4.2,18.3v7c0,3.4,0.4,6.8,1.3,10.2L256.6,70.5z M381.2,92.2H361l-15.3-17.6c-0.9-1.1-2.3-1.7-3.8-1.7l0,0
		c-1.5,0-2.8,0.7-3.8,1.8l-14.9,17.6h-19.5c-11.9,0-22.8-6.6-28.3-17.2c-0.1-1.2-0.6-2.3-1.4-3.2c-1.5-3.7-2.2-7.6-2.2-11.6v-7
		c0-6.8,2.2-13.5,6.3-19c0.9-0.6,1.6-1.4,2-2.5c6-6.7,14.6-10.4,23.6-10.4h77.4c17.6,0,31.9,14.3,31.9,31.9v7
		c0,4.2-0.8,8.4-2.5,12.3c-0.3,0.5-0.6,1-0.7,1.6C404.5,85.2,393.4,92.2,381.2,92.2L381.2,92.2z M428.6,70.5h-6.8
		c0.8-3.3,1.3-6.7,1.2-10.2v-7c0-6.3-1.4-12.6-4.2-18.3h9.7L428.6,70.5L428.6,70.5z"/>
</g>
<text transform="matrix(6.123234e-17 1 -1 6.123234e-17 165.9336 271.3578)" class="st1 st2 st3">Created by antonio bartolo</text>
<text transform="matrix(6.123234e-17 1 -1 6.123234e-17 165.9336 335.9604)" class="st1 st2 st3">from the Noun Project</text>
</svg>
